<svg xmlns="http://www.w3.org/2000/svg" xmlns:xlink="http://www.w3.org/1999/xlink" width="1366" zoomAndPan="magnify" viewBox="0 0 1024.5 576" height="768" preserveAspectRatio="xMidYMid meet" version="1.0"><path fill="#156cdd" d="M 315.300781 44.820312 C 313.738281 46.707031 312.367188 48.722656 311.183594 50.867188 C 310 53.011719 309.03125 55.246094 308.269531 57.574219 C 307.507812 59.902344 306.96875 62.28125 306.65625 64.710938 C 306.34375 67.140625 306.261719 69.578125 306.40625 72.023438 L 306.40625 499.175781 C 306.261719 501.621094 306.34375 504.058594 306.65625 506.488281 C 306.96875 508.914062 307.507812 511.292969 308.269531 513.621094 C 309.03125 515.949219 310 518.1875 311.183594 520.332031 C 312.367188 522.476562 313.738281 524.492188 315.300781 526.378906 L 316.75 527.722656 L 556.074219 288.390625 L 556.074219 282.804688 L 316.75 43.476562 Z M 315.300781 44.820312 " fill-opacity="1" fill-rule="nonzero"/><path fill="#ccd8e5" d="M 635.816406 368.339844 L 556.074219 288.496094 L 556.074219 282.910156 L 635.816406 202.855469 L 637.675781 203.890625 L 732.207031 257.570312 C 759.199219 272.980469 759.199219 298.011719 732.207031 313.421875 L 637.675781 367.097656 Z M 635.816406 368.339844 " fill-opacity="1" fill-rule="nonzero"/><path fill="#cad0d8" d="M 637.675781 367.203125 L 556.074219 285.597656 L 315.300781 526.378906 C 324.195312 535.789062 338.882812 536.71875 355.429688 527.515625 Z M 637.675781 367.203125 " fill-opacity="1" fill-rule="nonzero"/><path fill="#0795ff" d="M 637.675781 203.996094 L 355.429688 43.683594 C 338.882812 34.269531 324.402344 35.410156 315.300781 44.820312 L 556.074219 285.597656 Z M 637.675781 203.996094 " fill-opacity="1" fill-rule="nonzero"/></svg>